<svg width="49" height="49" viewBox="0 0 49 49" fill="none" xmlns="http://www.w3.org/2000/svg">
<path fill-rule="evenodd" clip-rule="evenodd" d="M23.5949 1.08984C24.0971 0.588307 24.9107 0.588577 25.4126 1.09044L30.9648 6.64262H41.0713C41.7814 6.64262 42.357 7.21825 42.357 7.92833V18.0338L47.9092 23.5859C48.411 24.0878 48.4114 24.9013 47.9099 25.4035L42.357 30.9648V41.0708C42.357 41.7809 41.7814 42.3565 41.0713 42.3565H30.9659L25.4137 47.9087C24.9119 48.4106 24.0983 48.4109 23.5961 47.9094L18.0348 42.3565H7.92882C7.21874 42.3565 6.64311 41.7809 6.64311 41.0708V30.9649L1.09033 25.4047C0.588795 24.9025 0.589065 24.0889 1.09093 23.5871L6.64311 18.0349V7.92833C6.64311 7.21825 7.21874 6.64262 7.92882 6.64262H18.0348L23.5949 1.08984ZM24.5028 3.81725L19.4754 8.83807C19.2343 9.07882 18.9075 9.21405 18.5668 9.21405H9.21453V18.5675C9.21453 18.9084 9.07908 19.2355 8.83796 19.4766L3.81774 24.4968L8.83856 29.5243C9.07931 29.7654 9.21453 30.0921 9.21453 30.4328V39.7851H18.5668C18.9075 39.7851 19.2342 39.9203 19.4753 40.161L24.5039 45.182L29.5242 40.1617C29.7653 39.9206 30.0923 39.7851 30.4333 39.7851H39.7856V30.4328C39.7856 30.0922 39.9208 29.7654 40.1615 29.5244L45.1825 24.4958L40.1622 19.4755C39.9211 19.2344 39.7856 18.9073 39.7856 18.5663V9.21405H30.4322C30.0912 9.21405 29.7642 9.07859 29.5231 8.83747L24.5028 3.81725Z" fill="white"/>
<path fill-rule="evenodd" clip-rule="evenodd" d="M26.5894 16.6246C26.5894 15.9145 27.165 15.3389 27.8751 15.3389C29.4966 15.3389 30.9086 16.2429 31.9566 17.4233C33.0169 18.6174 33.825 20.217 34.2552 21.9377C35.1118 25.3641 34.5287 29.6367 30.8813 32.2894C27.3882 34.8298 23.5261 34.8441 20.5444 33.5547C17.6533 32.3045 15.3394 29.6844 15.3394 26.7496C15.3394 26.0395 15.915 25.4639 16.6251 25.4639C19.4148 25.4639 21.8814 25.1689 23.6463 23.9923C25.2927 22.8946 26.5894 20.8387 26.5894 16.6246ZM29.093 18.3092C28.7723 22.1298 27.3288 24.6277 25.0726 26.1319C23.0579 27.475 20.5682 27.8957 18.1724 28.0033C18.6679 29.2262 19.8495 30.4526 21.5651 31.1945C23.7865 32.1551 26.6744 32.1694 29.3689 30.2098C31.909 28.3624 32.4509 25.3226 31.7606 22.5614C31.4173 21.1884 30.784 19.9755 30.0338 19.1306C29.7176 18.7745 29.4006 18.504 29.093 18.3092Z" fill="white"/>
</svg>
