<svg width="17" height="17" viewBox="0 0 17 17" fill="none" xmlns="http://www.w3.org/2000/svg">
<path fill-rule="evenodd" clip-rule="evenodd" d="M2.42476 1.00996C2.03423 0.61944 1.40107 0.619439 1.01054 1.00996C0.620019 1.40049 0.620019 2.03365 1.01054 2.42418L7.02096 8.4346L1.01057 14.445C0.620049 14.8355 0.620048 15.4687 1.01057 15.8592C1.4011 16.2497 2.03426 16.2497 2.42479 15.8592L8.43518 9.84881L14.4456 15.8592C14.8361 16.2497 15.4693 16.2497 15.8598 15.8592C16.2503 15.4687 16.2503 14.8355 15.8598 14.445L9.84939 8.4346L15.8598 2.42418C16.2503 2.03365 16.2503 1.40049 15.8598 1.00996C15.4693 0.61944 14.8361 0.619441 14.4456 1.00996L8.43518 7.02039L2.42476 1.00996Z" fill="white"/>
</svg>
