<svg width="26" height="26" viewBox="0 0 26 26" fill="none" xmlns="http://www.w3.org/2000/svg">
<path fill-rule="evenodd" clip-rule="evenodd" d="M11.5654 2.72039C9.2198 2.72039 6.97026 3.65222 5.31166 5.31088C3.65306 6.96954 2.72127 9.21916 2.72127 11.5649C2.72127 13.9106 3.65306 16.1602 5.31166 17.8188C6.97026 19.4775 9.2198 20.4093 11.5654 20.4093C13.911 20.4093 16.1606 19.4775 17.8192 17.8188C19.4778 16.1602 20.4095 13.9106 20.4095 11.5649C20.4095 9.21916 19.4778 6.96954 17.8192 5.31088C16.1606 3.65222 13.911 2.72039 11.5654 2.72039ZM2.60816e-08 11.5649C0.000157142 9.72057 0.441342 7.90307 1.28675 6.26397C2.13215 4.62488 3.35726 3.21173 4.85986 2.14242C6.36246 1.07311 8.09898 0.378661 9.92454 0.116999C11.7501 -0.144663 13.6118 0.034053 15.3542 0.638238C17.0967 1.24242 18.6694 2.25456 19.9411 3.59019C21.2129 4.92583 22.1468 6.54624 22.6649 8.31624C23.1831 10.0862 23.2705 11.9545 22.9198 13.7651C22.5691 15.5758 21.7905 17.2763 20.649 18.7248L25.6181 23.694C25.8659 23.9507 26.003 24.2944 25.9999 24.6511C25.9968 25.0079 25.8538 25.3492 25.6015 25.6015C25.3492 25.8537 25.0079 25.9968 24.6512 25.9999C24.2944 26.003 23.9507 25.8659 23.6941 25.618L18.7251 20.6488C17.0197 21.9932 14.9703 22.8302 12.8114 23.0642C10.6525 23.2981 8.47135 22.9195 6.51757 21.9717C4.5638 21.0239 2.91633 19.5451 1.7637 17.7047C0.61107 15.8642 -0.000145783 13.7365 2.60816e-08 11.5649ZM10.2048 6.80245C10.2048 6.44158 10.3481 6.09548 10.6033 5.8403C10.8585 5.58512 11.2045 5.44177 11.5654 5.44177C13.1893 5.44177 14.7467 6.08688 15.8949 7.23518C17.0432 8.38348 17.6883 9.94092 17.6883 11.5649C17.6883 11.9257 17.5449 12.2718 17.2897 12.527C17.0346 12.7822 16.6885 12.9255 16.3276 12.9255C15.9668 12.9255 15.6207 12.7822 15.3655 12.527C15.1103 12.2718 14.967 11.9257 14.967 11.5649C14.967 10.6627 14.6086 9.79743 13.9707 9.15948C13.3328 8.52154 12.4676 8.16314 11.5654 8.16314C11.2045 8.16314 10.8585 8.01978 10.6033 7.76461C10.3481 7.50943 10.2048 7.16333 10.2048 6.80245Z" fill="#3784D2"/>
</svg>
